<svg width="420" height="260" viewBox="0 0 420 260" fill="none" xmlns="http://www.w3.org/2000/svg">
  <defs>
    <radialGradient id="mouthGlow" cx="0" cy="0" r="1" gradientUnits="userSpaceOnUse" gradientTransform="translate(210 126) rotate(90) scale(94 160)">
      <stop stop-color="#020305"/>
      <stop offset="0.58" stop-color="#071018"/>
      <stop offset="1" stop-color="#1F2E33" stop-opacity="0"/>
    </radialGradient>
    <linearGradient id="rimRock" x1="74" y1="72" x2="335" y2="210" gradientUnits="userSpaceOnUse">
      <stop stop-color="#D8E1CF"/>
      <stop offset="0.26" stop-color="#879C8B"/>
      <stop offset="0.6" stop-color="#465954"/>
      <stop offset="1" stop-color="#18222A"/>
    </linearGradient>
  </defs>
  <ellipse cx="210" cy="130" rx="160" ry="82" fill="url(#mouthGlow)"/>
  <path d="M70 138C84 112 118 93 160 85C142 101 129 119 122 139C105 141 88 144 70 148V138Z" fill="url(#rimRock)" fill-opacity="0.9"/>
  <path d="M350 138C336 112 302 93 260 85C278 101 291 119 298 139C315 141 332 144 350 148V138Z" fill="url(#rimRock)" fill-opacity="0.9"/>
  <path d="M86 147C121 164 165 173 210 173C255 173 299 164 334 147C311 181 267 206 210 206C153 206 109 181 86 147Z" fill="#0C141A" fill-opacity="0.88"/>
  <ellipse cx="210" cy="134" rx="112" ry="46" fill="#030507"/>
  <path d="M116 146C143 154 176 159 210 159C244 159 277 154 304 146" stroke="#EEF4E1" stroke-width="10" stroke-linecap="round" stroke-opacity="0.12"/>
</svg>
