<svg xmlns="http://www.w3.org/2000/svg" viewBox="0 0 512 512">
  <path d="M73 301c14-108 118-210 252-210 74 0 139 23 183 67-8 112-72 201-185 249-103 43-226 18-250-106z" fill="#6d534d"/>
  <path d="M129 319c0-82 63-140 145-140 59 0 107 29 130 78-39 82-121 135-212 135-37 0-63-30-63-73z" fill="#8f6a5e"/>
  <ellipse cx="244" cy="294" rx="109" ry="86" fill="#0a121a"/>
  <ellipse cx="244" cy="294" rx="70" ry="51" fill="#152637"/>
  <circle cx="380" cy="166" r="23" fill="#b89065"/>
  <circle cx="127" cy="228" r="18" fill="#9b755d"/>
</svg>
