<svg width="320" height="180" viewBox="0 0 320 180" fill="none" xmlns="http://www.w3.org/2000/svg">
  <defs>
    <linearGradient id="falconHull" x1="38" y1="34" x2="292" y2="145" gradientUnits="userSpaceOnUse">
      <stop stop-color="#FFF8E8"/>
      <stop offset="0.46" stop-color="#CADCEB"/>
      <stop offset="1" stop-color="#596E87"/>
    </linearGradient>
    <linearGradient id="falconFlame" x1="278" y1="86" x2="318" y2="86" gradientUnits="userSpaceOnUse">
      <stop stop-color="#9DEBFF"/>
      <stop offset="1" stop-color="#4E8CFF" stop-opacity="0"/>
    </linearGradient>
  </defs>
  <g>
    <animateTransform attributeName="transform" type="rotate" values="-1 160 90;2 160 90;-1 160 90" dur="2.8s" repeatCount="indefinite"/>
    <path d="M37 93C62 48 125 27 197 37C239 43 273 61 294 88C270 115 235 132 194 144C120 164 65 148 37 93Z" fill="url(#falconHull)"/>
    <path d="M92 83L34 58L76 98L35 124L94 103" fill="#71879C"/>
    <path d="M207 65L281 38L245 85L284 129L205 113" fill="#AFC0CF"/>
    <path d="M73 96C118 68 188 64 251 80" stroke="#FFF9EA" stroke-width="8" stroke-linecap="round" stroke-opacity="0.62"/>
    <ellipse cx="158" cy="91" rx="42" ry="24" fill="#2D4053"/>
    <ellipse cx="158" cy="91" rx="25" ry="14" fill="#90D4FF">
      <animate attributeName="opacity" values="0.72;1;0.72" dur="1.15s" repeatCount="indefinite"/>
    </ellipse>
    <path d="M104 108H214" stroke="#40566B" stroke-width="6" stroke-linecap="round" stroke-dasharray="18 12">
      <animate attributeName="stroke-dashoffset" values="0;-30" dur="1.3s" repeatCount="indefinite"/>
    </path>
    <circle cx="112" cy="112" r="7" fill="#FFCE9F"/>
    <circle cx="211" cy="106" r="7" fill="#FFCE9F"/>
  </g>
  <path d="M276 84L319 70L319 102L276 96" fill="url(#falconFlame)">
    <animate attributeName="opacity" values="0.45;1;0.45" dur="0.8s" repeatCount="indefinite"/>
  </path>
</svg>
