<svg width="320" height="180" viewBox="0 0 320 180" fill="none" xmlns="http://www.w3.org/2000/svg">
  <defs>
    <linearGradient id="blockadeHull" x1="46" y1="42" x2="265" y2="139" gradientUnits="userSpaceOnUse">
      <stop stop-color="#F2FBFF"/>
      <stop offset="0.46" stop-color="#A8CCE1"/>
      <stop offset="1" stop-color="#556D82"/>
    </linearGradient>
  </defs>
  <path d="M50 95L92 58H223L269 95L223 132H92L50 95Z" fill="url(#blockadeHull)"/>
  <path d="M108 58L134 28H214L198 58H108Z" fill="#D6E5F0"/>
  <path d="M108 132L134 154H214L198 132H108Z" fill="#567185"/>
  <rect x="116" y="74" width="85" height="30" rx="14" fill="#2C4255"/>
  <rect x="129" y="80" width="58" height="18" rx="9" fill="#A0EEFF"/>
  <path d="M221 95H296" stroke="#D7EEFF" stroke-width="10" stroke-linecap="round"/>
  <path d="M294 95L315 84V106L294 95Z" fill="#96D0E7"/>
  <circle cx="92" cy="95" r="10" fill="#FAD6AA"/>
  <circle cx="223" cy="95" r="10" fill="#FAD6AA"/>
</svg>
