<svg width="320" height="180" viewBox="0 0 320 180" fill="none" xmlns="http://www.w3.org/2000/svg">
  <defs>
    <linearGradient id="blockadeHull" x1="28" y1="43" x2="289" y2="138" gradientUnits="userSpaceOnUse">
      <stop stop-color="#E9FBFF"/>
      <stop offset="0.42" stop-color="#AEF0FF"/>
      <stop offset="1" stop-color="#4F7183"/>
    </linearGradient>
  </defs>
  <g>
    <animateTransform attributeName="transform" type="translate" values="0 -2;0 4;0 -2" dur="3.8s" repeatCount="indefinite"/>
    <path d="M30 93C50 35 132 22 223 48C270 61 298 90 304 96C284 124 235 151 156 151C84 151 43 125 30 93Z" fill="url(#blockadeHull)"/>
    <path d="M66 111C117 132 222 130 274 100" stroke="#315065" stroke-width="14" stroke-linecap="round"/>
    <path d="M77 65C115 35 196 40 250 75C193 66 125 69 77 65Z" fill="#FFF4D8" opacity="0.86"/>
    <g>
      <animate attributeName="opacity" values="0.5;1;0.5" dur="1.8s" repeatCount="indefinite"/>
      <circle cx="111" cy="98" r="13" fill="#FFCE9F"/>
      <circle cx="202" cy="100" r="13" fill="#FFCE9F"/>
      <circle cx="154" cy="119" r="8" fill="#FFD68E"/>
    </g>
    <path d="M49 91L12 68L28 96L13 124L54 111" fill="#86BFD7"/>
    <path d="M279 90L319 77L319 111L279 101" fill="#86BFD7" opacity="0.76"/>
  </g>
</svg>
