<svg width="320" height="180" viewBox="0 0 320 180" fill="none" xmlns="http://www.w3.org/2000/svg">
  <defs>
    <linearGradient id="falconHull" x1="42" y1="42" x2="260" y2="146" gradientUnits="userSpaceOnUse">
      <stop stop-color="#FFF4D8"/>
      <stop offset="0.42" stop-color="#C6D8E8"/>
      <stop offset="1" stop-color="#5C738E"/>
    </linearGradient>
  </defs>
  <path d="M40 93C64 50 123 29 194 37C234 41 269 58 290 86C268 113 234 130 194 143C122 164 67 147 40 93Z" fill="url(#falconHull)"/>
  <path d="M91 86L39 63L76 98L37 123L92 101" fill="#7C92A6"/>
  <path d="M206 66L276 43L243 86L278 127L205 112" fill="#A7BACB"/>
  <ellipse cx="158" cy="91" rx="39" ry="22" fill="#415469"/>
  <ellipse cx="158" cy="91" rx="24" ry="14" fill="#9DEBFF"/>
  <path d="M91 78C127 63 181 62 235 76" stroke="#FFF9EA" stroke-width="7" stroke-linecap="round" stroke-opacity="0.7"/>
  <circle cx="113" cy="107" r="7" fill="#FFCE9F"/>
  <circle cx="210" cy="102" r="7" fill="#FFCE9F"/>
  <path d="M274 85L310 75L310 105L274 95" fill="#6CEAFF"/>
</svg>
