<svg width="320" height="180" viewBox="0 0 320 180" fill="none" xmlns="http://www.w3.org/2000/svg">
  <defs>
    <linearGradient id="saucerRim" x1="45" y1="66" x2="282" y2="119" gradientUnits="userSpaceOnUse">
      <stop stop-color="#FFF4C8"/>
      <stop offset="0.48" stop-color="#FFD68E"/>
      <stop offset="1" stop-color="#A86D43"/>
    </linearGradient>
    <radialGradient id="saucerDome" cx="0" cy="0" r="1" gradientUnits="userSpaceOnUse" gradientTransform="translate(162 78) rotate(90) scale(42 74)">
      <stop stop-color="#FFF8E8"/>
      <stop offset="0.48" stop-color="#9DEBFF"/>
      <stop offset="1" stop-color="#2D2545"/>
    </radialGradient>
  </defs>
  <ellipse cx="160" cy="99" rx="126" ry="37" fill="#593D46"/>
  <path d="M31 99C66 55 253 55 289 99C249 137 71 138 31 99Z" fill="url(#saucerRim)"/>
  <ellipse cx="160" cy="83" rx="72" ry="39" fill="url(#saucerDome)">
    <animate attributeName="opacity" values="0.55;1;0.55" dur="1.4s" repeatCount="indefinite"/>
  </ellipse>
  <ellipse cx="160" cy="101" rx="91" ry="19" fill="#34233E"/>
  <ellipse cx="160" cy="100" rx="55" ry="10" fill="#FFF4D8" opacity="0.7"/>
  <g>
    <animateTransform attributeName="transform" type="rotate" from="0 160 99" to="360 160 99" dur="3.6s" repeatCount="indefinite"/>
    <circle cx="70" cy="98" r="7" fill="#FF6DB3"/>
    <circle cx="107" cy="76" r="6" fill="#FFE0A4"/>
    <circle cx="160" cy="68" r="6" fill="#FF6DB3"/>
    <circle cx="213" cy="76" r="6" fill="#FFE0A4"/>
    <circle cx="250" cy="98" r="7" fill="#FF6DB3"/>
    <circle cx="160" cy="128" r="6" fill="#FFE0A4"/>
  </g>
  <path d="M286 93L318 82L318 112L286 105" fill="#FFB160" opacity="0.72"/>
</svg>
