<svg xmlns="http://www.w3.org/2000/svg" viewBox="0 0 512 512">
  <path d="M82 256c0-46 78-86 174-86s174 40 174 86-78 86-174 86S82 302 82 256z" fill="#b97933"/>
  <path d="M118 256c0-30 62-56 138-56s138 26 138 56-62 56-138 56-138-26-138-56z" fill="#f0bb68"/>
  <path d="M96 256c0-38 72-70 160-70 43 0 84 8 114 23-25-37-68-61-114-61-96 0-174 40-174 92 0 23 15 44 42 61-18-13-28-28-28-45z" fill="#8d5526"/>
  <path d="M140 193h232l-18 14H158l-18-14zm-28 42h288l-18 14H130l-18-14zm0 42h288l-18 14H130l-18-14zm28 42h232l-18 14H158l-18-14z" fill="#fff0bf" opacity=".58"/>
  <path d="M158 180 188 144l18 44-48 20-20-28zm82-18 16-48 16 48-16 24-16-24zm66 20 18-44 30 36-20 28-48-20z" fill="#f4d8ae"/>
  <path d="M158 332 188 368l18-44-48-20-20 28zm82 18 16 48 16-48-16-24-16 24zm66-20 18 44 30-36-20-28-48 20z" fill="#d8b06f"/>
</svg>
