<svg xmlns="http://www.w3.org/2000/svg" viewBox="0 0 512 512">
  <ellipse cx="272" cy="260" rx="176" ry="126" fill="#4f7c56"/>
  <ellipse cx="300" cy="244" rx="122" ry="86" fill="#7aa861"/>
  <path d="M113 266c38 69 123 122 205 122 47 0 94-15 132-40-31 58-104 98-185 98-110 0-204-72-231-172 17-7 44-8 79-8z" fill="#335e42"/>
  <circle cx="328" cy="218" r="17" fill="#1d2418"/>
  <circle cx="332" cy="212" r="5" fill="#f5f7df"/>
  <path d="M173 274c52 14 104 21 155 21 34 0 67-4 101-12-12 41-68 76-132 76-64 0-111-32-124-85z" fill="#d2b976"/>
  <path d="M338 118c25 10 48 33 67 69-33-16-61-25-88-27 6-21 13-35 21-42z" fill="#8db56b"/>
</svg>
