<svg xmlns="http://www.w3.org/2000/svg" viewBox="0 0 512 512">
  <path d="M118 262c10-68 70-124 150-140 88-18 183 11 220 64-24 58-82 116-172 136-88 20-175-5-198-60z" fill="#b1762f"/>
  <path d="M154 258c14-48 59-86 118-98 69-14 142 7 171 47-21 40-63 78-129 92-68 14-135-4-160-41z" fill="#efc173"/>
  <path d="M116 258c12 12 29 22 49 28 23-54 82-93 160-108 44-8 88-5 125 7-37-36-104-54-171-40-90 19-156 69-163 113z" fill="#8e531f"/>
  <path d="M138 272h182c14 0 30-8 44-20 11 24 10 44-4 58-20 20-74 33-129 28-49-5-86-23-103-48 3-7 6-13 10-18z" fill="#fff0c2"/>
  <path d="M141 248h190l40 22-40 16H145l-35-16 31-22z" fill="#4e3118"/>
  <path d="M226 136c24 20 34 48 30 82l-30 5c-11-37-21-60-47-82 15-7 30-9 47-5zm96-6c14 20 15 47 1 81l30 11c21-33 28-60 20-85-17-8-34-10-51-7z" fill="#614020"/>
  <path d="M242 108c-8 16-12 39-10 69" stroke="#f0d792" stroke-linecap="round" stroke-width="12"/>
  <path d="M308 100c8 18 10 42 4 71" stroke="#f0d792" stroke-linecap="round" stroke-width="12"/>
  <path d="M166 148c-32-19-69-33-108-42" stroke="#f6e9bc" stroke-linecap="round" stroke-width="10"/>
  <path d="M194 126c-18-29-42-56-71-81" stroke="#f6e9bc" stroke-linecap="round" stroke-width="10"/>
  <path d="M334 126c19-31 43-57 72-79" stroke="#f6e9bc" stroke-linecap="round" stroke-width="10"/>
  <path d="M362 150c30-18 66-31 108-39" stroke="#f6e9bc" stroke-linecap="round" stroke-width="10"/>
</svg>
