<svg width="280" height="170" viewBox="0 0 280 170" fill="none" xmlns="http://www.w3.org/2000/svg">
  <defs>
    <linearGradient id="jawBottomShell" x1="28" y1="58" x2="258" y2="122" gradientUnits="userSpaceOnUse">
      <stop stop-color="#FFF4E1"/>
      <stop offset="0.3" stop-color="#E7CCB0"/>
      <stop offset="0.7" stop-color="#6A3B22"/>
      <stop offset="1" stop-color="#3B1D10"/>
    </linearGradient>
  </defs>
  <path d="M18 58C42 78 76 94 119 104C154 112 194 120 250 132C258 134 263 127 259 120C238 85 212 59 178 42C145 25 104 21 55 32L18 58Z" fill="url(#jawBottomShell)"/>
  <path d="M56 69C97 80 143 90 218 109" stroke="#FFF5E2" stroke-width="7" stroke-linecap="round" stroke-opacity="0.78"/>
  <path d="M40 51C93 35 138 35 176 48" stroke="#3F2010" stroke-width="6" stroke-linecap="round" stroke-opacity="0.72"/>
  <path d="M232 117C246 123 256 127 263 129" stroke="#2E160C" stroke-width="6" stroke-linecap="round"/>
  <path d="M212 74L247 48" stroke="#E8DDCA" stroke-width="8" stroke-linecap="round"/>
</svg>
