<svg width="240" height="140" viewBox="0 0 240 140" fill="none" xmlns="http://www.w3.org/2000/svg">
  <defs>
    <linearGradient id="segShell" x1="34" y1="20" x2="212" y2="120" gradientUnits="userSpaceOnUse">
      <stop stop-color="#FFF0CE"/>
      <stop offset="0.32" stop-color="#F6C77A"/>
      <stop offset="0.58" stop-color="#8AF4E2"/>
      <stop offset="0.82" stop-color="#C782FF"/>
      <stop offset="1" stop-color="#6A4026"/>
    </linearGradient>
    <linearGradient id="segShadow" x1="120" y1="34" x2="120" y2="122" gradientUnits="userSpaceOnUse">
      <stop stop-color="#C08A54" stop-opacity="0"/>
      <stop offset="1" stop-color="#432211" stop-opacity="0.72"/>
    </linearGradient>
  </defs>
  <ellipse cx="120" cy="74" rx="92" ry="44" fill="url(#segShell)"/>
  <path d="M52 58C71 39 101 31 120 31C139 31 169 39 188 58C165 55 141 53 120 53C99 53 75 55 52 58Z" fill="#FFF6DE" fill-opacity="0.64"/>
  <path d="M32 78C55 67 86 61 120 61C154 61 185 67 208 78C186 91 154 99 120 99C86 99 55 91 32 78Z" fill="url(#segShadow)"/>
  <path d="M44 72C67 84 95 89 120 89C145 89 173 84 196 72" stroke="#FFE2AE" stroke-width="6" stroke-linecap="round" stroke-opacity="0.76"/>
  <path d="M50 58C73 69 97 74 120 74C143 74 167 69 190 58" stroke="#6E4224" stroke-width="5" stroke-linecap="round" stroke-opacity="0.72"/>
  <path d="M63 38L44 18" stroke="#F7ECD4" stroke-width="8" stroke-linecap="round"/>
  <path d="M177 38L196 18" stroke="#F7ECD4" stroke-width="8" stroke-linecap="round"/>
  <path d="M54 104L29 122" stroke="#F0E5CD" stroke-width="7" stroke-linecap="round"/>
  <path d="M186 104L211 122" stroke="#F0E5CD" stroke-width="7" stroke-linecap="round"/>
  <circle cx="79" cy="59" r="5" fill="#9FF9FF" fill-opacity="0.68"/>
  <circle cx="166" cy="85" r="4" fill="#FFB8DA" fill-opacity="0.56"/>
</svg>
