<svg xmlns="http://www.w3.org/2000/svg" viewBox="0 0 512 512">
  <path d="M112 332c49-37 103-68 161-92 55-22 111-37 165-42 26-2 47 0 62 7-17 17-30 26-46 33-47 20-93 42-137 70-44 27-84 59-122 95-15 14-35 20-61 18l-22-31z" fill="#5e341d"/>
  <path d="M132 322c56-31 111-58 164-80 57-24 112-38 166-43-19 21-39 33-68 45-49 21-95 43-140 70-41 25-80 54-117 88l-28-22z" fill="#866045"/>
  <path d="M264 250c38-11 74-18 112-18-41 13-79 29-113 48-9-8-10-20 1-30z" fill="#f0dbc1"/>
  <path d="M414 206c28-8 54-7 78 4-26 7-49 18-68 34-16-4-21-16-10-38z" fill="#f0dbc1"/>
  <path d="M432 224c24-20 42-44 52-74 7 36-6 67-38 93-17 13-38 15-62 5 20-4 36-12 48-24z" fill="#4a2916"/>
</svg>
